<?xml version="1.0" encoding="utf-8"?>
<!-- Generator: Adobe Illustrator 22.1.0, SVG Export Plug-In . SVG Version: 6.00 Build 0)  -->
<svg version="1.1" baseProfile="tiny" id="Calque_1"
	 xmlns="http://www.w3.org/2000/svg" xmlns:xlink="http://www.w3.org/1999/xlink" x="0px" y="0px" viewBox="0 0 160.3 128.2"
	 xml:space="preserve">
<g>
	<path fill="#FFFFFF" d="M35.9,101.5c0.2,0.6,0.4,1.2,0.3,1.9c0,0,0,0.6,0,1.3c0.4-0.1,0.9-0.2,1.2-0.2c-0.3-1-0.2-2.1,0.2-3
		C37,101.5,36.5,101.5,35.9,101.5z"/>
	<path fill="#934444" d="M132.1,29.6c1.5-2,3.1-3.9,4.5-6c-0.1-0.2-0.3-0.3-0.4-0.5c-15-15-34.8-23.2-56-23.2
		c-21.2,0-41,8.2-56,23.2C9.3,38.2,1,58,1,79.2c0,2,1.6,3.7,3.7,3.7c2,0,3.7-1.6,3.7-3.7c0-39.6,32.2-71.8,71.8-71.8
		C100.6,7.4,119,15.9,132.1,29.6z"/>
	<path fill="#AA5050" d="M124.8,38.4c1.6-1.9,3.2-3.7,4.8-5.7c-12.4-13.2-29.9-21.4-49.4-21.4c-37.4,0-67.9,30.4-67.9,67.9
		c0,2,1.6,3.7,3.7,3.7c2,0,3.7-1.6,3.7-3.7c0-33.4,27.1-60.5,60.5-60.5C97.9,18.7,113.8,26.3,124.8,38.4z"/>
	<path fill="#AA5050" d="M36.1,38.4c-1.6-1.9-3.2-3.7-4.8-5.7c12.4-13.2,29.9-21.4,49.4-21.4c37.4,0,67.9,30.4,67.9,67.9
		c0,2-1.6,3.7-3.7,3.7c-2,0-3.7-1.6-3.7-3.7c0-33.4-27.1-60.5-60.5-60.5C63.1,18.7,47.2,26.3,36.1,38.4z"/>
	<path fill="#C05B5B" d="M117,47c1.7-1.8,3.4-3.6,5-5.4c-10.3-11.5-25.2-18.7-41.8-18.7c-31.1,0-56.3,25.3-56.3,56.3
		c0,2,1.6,3.7,3.7,3.7c2,0,3.7-1.6,3.7-3.7c0-27,22-49,49-49C94.9,30.2,108.1,36.7,117,47z"/>
	<path fill="#E5615B" d="M108.9,55.3c1.8-1.7,3.6-3.4,5.2-5.2c-8.2-9.6-20.4-15.6-33.9-15.6c-24.7,0-44.7,20.1-44.7,44.7
		c0,2,1.6,3.7,3.7,3.7s3.7-1.6,3.7-3.7c0-20.6,16.8-37.4,37.4-37.4C91.7,41.8,102,47,108.9,55.3z"/>
	<path fill="#F3816F" d="M100.8,63.6c1.6-1.9,3.3-3.7,5.1-5.4C99.8,50.7,90.6,46,80.2,46C61.9,46,47,60.9,47,79.2
		c0,2,1.6,3.7,3.7,3.7c2,0,3.7-1.6,3.7-3.7c0-14.3,11.6-25.9,25.9-25.9C88.6,53.3,96.1,57.4,100.8,63.6z"/>
	<path fill="#934444" d="M28.5,29.6c-1.5-2-3.1-3.9-4.5-6c0.1-0.2,0.3-0.3,0.4-0.5C39.4,8.2,59.3,0,80.5,0c21.2,0,41,8.2,56,23.2
		c15,15,23.2,34.8,23.2,56c0,2-1.6,3.7-3.7,3.7c-2,0-3.7-1.6-3.7-3.7c0-39.6-32.2-71.8-71.8-71.8C60.1,7.4,41.6,15.9,28.5,29.6z"/>
	<path fill="#AA5050" d="M142.6,82.2c0.3-0.3,0.7-0.6,1.1-0.8c1.5-0.8,2.9-0.8,4.1-0.3c0.3-0.6,0.6-1.2,0.6-1.9
		c0-37.4-30.4-67.9-67.9-67.9c-19.5,0-37,8.2-49.4,21.4c1.6,1.9,3.2,3.8,4.8,5.7c11.1-12.1,27-19.7,44.6-19.7
		c33.4,0,60.5,27.1,60.5,60.5C141,80.5,141.6,81.6,142.6,82.2z"/>
	<path fill="#C05B5B" d="M43.6,47c-1.7-1.8-3.4-3.6-5-5.4c10.3-11.5,25.2-18.7,41.8-18.7c31.1,0,56.3,25.3,56.3,56.3
		c0,2-1.6,3.7-3.7,3.7c-2,0-3.7-1.6-3.7-3.7c0-27-22-49-49-49C65.8,30.2,52.6,36.7,43.6,47z"/>
	<path fill="#E5615B" d="M51.8,55.3c-1.8-1.7-3.6-3.4-5.2-5.2c8.2-9.6,20.4-15.6,33.9-15.6c24.7,0,44.7,20.1,44.7,44.7
		c0,2-1.6,3.7-3.7,3.7s-3.7-1.6-3.7-3.7c0-20.6-16.8-37.4-37.4-37.4C68.9,41.8,58.6,47,51.8,55.3z"/>
	<path fill="#F3816F" d="M59.8,63.6c-1.6-1.9-3.3-3.7-5.1-5.4C60.9,50.7,70.1,46,80.5,46c18.3,0,33.2,14.9,33.2,33.2
		c0,2-1.6,3.7-3.7,3.7c-2,0-3.7-1.6-3.7-3.7c0-14.3-11.6-25.9-25.9-25.9C72,53.3,64.6,57.4,59.8,63.6z"/>
	<text transform="matrix(1 0 0 1 2.441406e-04 114.7388)" fill="#2A333C" font-family="'CoasterBlack'" font-size="40px">w</text>
	<text transform="matrix(1 0 0 1 24.9197 114.7388)" fill="#2A333C" font-family="'CoasterBlack'" font-size="40px">o</text>
	<text transform="matrix(1 0 0 1 42.0398 114.7388)" fill="#2A333C" font-family="'CoasterBlack'" font-size="40px">o</text>
	<text transform="matrix(1 0 0 1 59.1599 114.7388)" fill="#2A333C" font-family="'CoasterBlack'" font-size="40px">d</text>
	<text transform="matrix(1 0 0 1 77.0393 114.7388)" fill="#2A333C" font-family="'CoasterBlack'" font-size="40px">s</text>
	<text transform="matrix(1 0 0 1 94.9192 114.7388)" fill="#2A333C" font-family="'CoasterBlack'" font-size="40px">t</text>
	<text transform="matrix(1 0 0 1 109.3987 114.7388)" fill="#2A333C" font-family="'CoasterBlack'" font-size="40px">o</text>
	<text transform="matrix(1 0 0 1 126.5188 114.7388)" fill="#2A333C" font-family="'CoasterBlack'" font-size="40px">c</text>
	<text transform="matrix(1 0 0 1 141.6785 114.7388)" fill="#2A333C" font-family="'CoasterBlack'" font-size="40px">k</text>
	<g>
		<path fill="#2A333C" d="M24.6,99.3v0.3c0,2.6-0.2,4.9-0.5,7c-0.4,2.8-1.2,5-2.4,6.5c-0.8,1.1-2.2,1.6-4.1,1.6
			c-1.8,0-3.4-1.1-4.7-3.4c0.1,0-0.2,0.4-0.9,1.1c-1.3,1.5-2.9,2.3-4.8,2.3c-0.8,0-1.7-0.3-2.5-0.8c-0.8-0.6-1.4-1.2-1.7-2
			c-0.7-1.6-1-3.7-1-6.3c0-0.8,0-1.9,0.1-3.5c0.1-1.5,0.1-2.7,0.1-3.5c0-1.3-0.1-2.4-0.2-3.2c-0.1-0.3-0.2-0.9-0.5-1.6
			c-0.3-0.7-0.4-1.2-0.4-1.6c0-0.1,0-0.3,0.1-0.5c0.7-1,2.4-1.6,5.1-1.8C6.5,90,6.7,90,6.9,90c0.7,0,1.1,0.2,1.2,0.5
			c0.1,0.2,0.1,0.6,0.1,1.4c0,0.9,0,2.3-0.1,4.2C8,97.9,8,99.3,8,100.2c0,1.3,0.1,2.3,0.4,3.1c0.2,0.5,0.5,0.8,1,0.8
			c0.6,0,1-0.3,1.1-1c0.2-1.3,0.3-2.7,0.3-4.2c0-0.8,0-2-0.1-3.6c-0.1-1.6-0.1-2.8-0.1-3.6c0-1,1.2-1.5,3.6-1.5c1,0,1.7,0.1,2,0.2
			c0.3,0.3,0.5,0.9,0.5,1.6c0,0.7-0.1,1.9-0.2,3.3c-0.1,1.5-0.2,2.6-0.2,3.3c0,2.1,0.3,3.7,0.8,4.9c0.2,0.5,0.6,0.7,1.1,0.7
			c0.5,0,0.9-0.3,1.2-1c0.2-0.5,0.3-1.1,0.3-1.6c0-0.6-0.1-1.1-0.2-1.7c-0.4-0.3-0.9-0.7-1.6-1.4c-0.3-0.8-0.5-1.9-0.5-3.1
			c0-1.5,0.2-2.8,0.7-3.7c0.8-1.6,1.8-2.4,3-2.4c1.7,0,2.7,1.7,3.1,5c0.1,0.8,0.2,1.8,0.3,3.1c0,0.3,0,0.5,0,0.6c0,0.1,0,0.3,0,0.6
			C24.6,99,24.6,99.2,24.6,99.3z"/>
		<path fill="#2A333C" d="M42,101.5c0,3.3-0.3,5.8-0.9,7.7c-0.9,2.8-2.6,4.5-5.1,5.3c-0.6,0.2-1.3,0.3-2.1,0.3c-2.1,0-3.8-0.6-5-1.8
			c-0.2-0.2-0.5-0.6-0.9-1.1c-1.5-2.3-2.3-5.2-2.3-8.8c0-2.6,0.4-5.2,1.2-7.8c0.5-1.7,1.4-3,2.6-4.1c1.3-1.2,2.8-1.8,4.4-1.8
			C39.3,89.3,42,93.4,42,101.5z M36.2,102.2c0-1-0.2-2-0.7-3c-0.5-1.2-1.3-1.8-2.2-1.8c-1.2,0-1.8,1.1-1.8,3.4c0,1.7,0.5,3,1.6,3.9
			c0.3,0.2,0.6,0.3,0.9,0.3c0.3,0,0.6-0.1,1.1-0.2C35.9,104.1,36.2,103.3,36.2,102.2z"/>
		<path fill="#2A333C" d="M59.1,101.5c0,3.3-0.3,5.8-0.9,7.7c-0.9,2.8-2.6,4.5-5.1,5.3c-0.6,0.2-1.3,0.3-2.1,0.3
			c-2.1,0-3.8-0.6-5-1.8c-0.2-0.2-0.5-0.6-0.9-1.1c-1.5-2.3-2.3-5.2-2.3-8.8c0-2.6,0.4-5.2,1.2-7.8c0.5-1.7,1.4-3,2.6-4.1
			c1.3-1.2,2.8-1.8,4.4-1.8C56.5,89.3,59.1,93.4,59.1,101.5z M53.3,102.2c0-1-0.2-2-0.7-3c-0.5-1.2-1.3-1.8-2.2-1.8
			c-1.2,0-1.8,1.1-1.8,3.4c0,1.7,0.5,3,1.6,3.9c0.3,0.2,0.6,0.3,0.9,0.3c0.3,0,0.6-0.1,1.1-0.2C53,104.1,53.3,103.3,53.3,102.2z"/>
		<path fill="#2A333C" d="M77,107.7c0,3.1-0.7,5.2-2.2,6.4c-0.4,0.3-0.9,0.5-1.4,0.5c-0.7,0-1.3,0-1.6-0.1c-0.3-0.1-0.7-0.3-1.1-0.7
			c-0.4-0.4-0.7-0.6-0.7-0.6c-0.2,0-0.6,0.3-1.2,0.8c-0.8,0.6-2,0.8-3.5,0.8c-1.4,0-2.7-0.8-3.6-2.4c-0.7-1.2-1.2-2.7-1.5-4.4
			c-0.2-1.1-0.2-2.8-0.2-5c0-4.8,1.1-8.5,3.3-11.3c0.9-1.1,2.1-1.6,3.8-1.6c0.6,0,1.4,0.1,2.3,0.3c0.4-0.3,0.6-0.7,0.6-1.1
			c0-0.6-0.2-1.3-0.5-2.1c0-0.1-0.2-0.4-0.6-0.9c-0.2-0.3-0.4-0.7-0.4-1c0-0.2,0.1-0.5,0.2-0.7c0.7-0.5,1.7-0.9,3-1.3
			c1.3-0.4,2.3-0.6,3.2-0.6c0.3,0,0.6,0,0.8,0.1c0.1,0.1,0.3,0.3,0.5,0.6c0.1,0.2,0.2,0.9,0.2,2.2c0,1.8-0.1,4.4-0.2,7.9
			c-0.2,3.5-0.2,6.1-0.2,7.9c0,1,0,1.6,0,1.7c0.1,0.4,0.4,0.9,1,1.4L77,107.7z M69.6,102.6c0-1-0.1-2-0.4-3c-0.4-1.3-0.9-2-1.7-2
			c-0.5,0-0.9,0.3-1.2,0.8c-0.2,0.5-0.4,0.9-0.4,1.5c0,0.9,0.1,1.7,0.2,2.6l0.2,0.6c0.4,1.3,1.1,2,1.9,2
			C69.1,104.7,69.6,103.8,69.6,102.6z"/>
		<path fill="#2A333C" d="M94.8,106.7c0,1.5-0.5,2.9-1.6,4.4c-1,1.4-2.3,2.4-3.7,3c-1.1,0.5-2.4,0.7-4,0.7c-2.1,0-3.7-0.4-4.9-1.1
			c-1.9-1.2-2.9-2.9-2.9-5c0-1.1,0.3-2,0.8-2.9c0.5-0.9,1.3-1.5,2.2-1.9c0.9-0.4,1.7-0.6,2.4-0.6c0.6,0,1.1,0.1,1.6,0.3
			c0.7,0.3,1,0.6,1,1.1c0,0.1-0.1,0.4-0.3,0.8c-0.2,0.5-0.3,0.8-0.3,0.9c0,0.5,0.3,0.8,1,0.8c0.3,0,0.6-0.1,0.9-0.3
			c0.3-0.2,0.4-0.4,0.4-0.7c0-0.9-0.5-1.8-1.4-2.5c-0.6-0.5-1.5-1-2.8-1.6c-1.3-0.6-2.2-1.2-2.8-1.7c-1.3-1.1-1.9-2.5-1.9-4.3
			c0-3.1,2-5.2,6.1-6.2c1.2-0.3,2.1-0.4,2.7-0.4c1.9,0,3.5,0.4,4.8,1.1c1.6,0.9,2.4,2.2,2.4,3.9c0,1.1-0.5,1.9-1.5,2.5
			c-0.9,0.5-1.9,0.8-3,0.8c-0.5,0-0.9-0.1-1.4-0.3c-0.6-0.2-1-0.5-1-0.9c0-0.1,0.1-0.3,0.2-0.6c0.1-0.3,0.2-0.5,0.2-0.6
			c0-0.3-0.3-0.6-0.8-0.8c-0.7,0-1.1,0.4-1.1,1c0,0.7,0.6,1.6,1.9,2.5c0,0,0.6,0.4,1.6,1c2.6,1.7,4.2,3.3,4.7,5
			c0.1,0.2,0.1,0.7,0.2,1.3C94.8,106,94.8,106.5,94.8,106.7z"/>
		<path fill="#2A333C" d="M109.5,92.1c0,1.9-0.2,3.4-0.6,4.5c-0.2,0.7-0.7,1-1.5,1c-0.1,0-0.4,0-0.8-0.1c-0.5-0.1-0.7-0.1-0.9-0.1
			c-0.7,0-1.1,0.2-1.3,0.7c-0.1,0.2-0.1,0.7-0.1,1.5c0,2,0.5,3,1.4,3c0.3,0,0.7-0.2,1.4-0.6c0.6-0.4,1-0.6,1.2-0.6
			c0.3,0,0.6,0.4,0.7,1.2c0.3,1.5,0.4,3.1,0.4,4.7c0,2.6-0.5,4.5-1.5,5.6c-0.3,0.3-0.6,0.6-1,0.9c-0.8,0.6-1.8,0.9-3,0.9
			c-0.8,0-1.5-0.1-2.2-0.2c-1.5-0.3-2.6-1.6-3.2-4c-0.1-0.2-0.2-0.7-0.4-1.5c-0.1-0.4-0.1-1.1-0.1-2.3c0-1.1,0.1-2.9,0.3-5.2
			c0.2-2.3,0.3-3.3,0.3-3c0-0.6-0.3-0.9-0.9-1c-0.3,0.1-0.4,0.1-0.5,0.1c-0.3,0-0.7-0.1-1-0.3c-0.3-0.8-0.4-1.7-0.4-2.8
			c0-0.9,0.2-2.4,0.6-4.4c1.1-1.6,2.3-3,3.5-4.4c1.9-2,3.3-3,4.3-3c0.9,0,1.3,0.6,1.3,1.9c0,0.2,0,0.7-0.1,1.4
			c-0.1,0.7-0.1,1.2-0.1,1.4c0,0.6,0.1,1,0.2,1.4c0.3,0.3,0.7,0.4,1.2,0.4c0.1,0,0.4,0,0.9-0.1c0.4-0.1,0.7-0.1,0.8-0.1
			c0.6,0,1,0.2,1.2,0.6C109.5,90.2,109.5,90.9,109.5,92.1z"/>
		<path fill="#2A333C" d="M126.5,101.5c0,3.3-0.3,5.8-0.9,7.7c-0.9,2.8-2.6,4.5-5.1,5.3c-0.6,0.2-1.3,0.3-2.1,0.3
			c-2.1,0-3.8-0.6-5-1.8c-0.2-0.2-0.5-0.6-0.9-1.1c-1.5-2.3-2.3-5.2-2.3-8.8c0-2.6,0.4-5.2,1.2-7.8c0.5-1.7,1.4-3,2.6-4.1
			c1.3-1.2,2.8-1.8,4.4-1.8C123.8,89.3,126.5,93.4,126.5,101.5z M120.7,102.2c0-1-0.2-2-0.7-3c-0.5-1.2-1.3-1.8-2.2-1.8
			c-1.2,0-1.8,1.1-1.8,3.4c0,1.7,0.5,3,1.6,3.9c0.3,0.2,0.6,0.3,0.9,0.3c0.3,0,0.6-0.1,1.1-0.2C120.3,104.1,120.7,103.3,120.7,102.2
			z"/>
		<path fill="#2A333C" d="M141.8,105.5c0,3.2-0.9,5.7-2.6,7.5c-1.1,1.2-2.7,1.7-4.6,1.7c-4.8,0-7.2-3.6-7.2-10.8
			c0-7.7,2.1-12.5,6.3-14.3c0.6-0.2,1.4-0.4,2.5-0.4c1.6,0,2.8,0.4,3.6,1.2c1.3,1.3,1.9,2.9,1.9,4.9c0,3.3-1.5,4.9-4.5,4.9
			c-0.4,0-0.7-0.1-1.1-0.2c-0.5-0.2-0.8-0.4-0.8-0.7c0-0.1,0-0.1,0-0.2c0.3-0.3,0.4-0.6,0.4-1.1c0-0.5-0.3-0.8-0.9-1
			c-0.8,0.1-1.2,0.9-1.2,2.3c0,3.4,0.9,5,2.6,5c1.4,0,2.8-0.7,4.1-2.1c0.2-0.1,0.3-0.1,0.3-0.1c0.2,0,0.5,0.3,1,1
			C141.7,104.1,141.8,104.8,141.8,105.5z"/>
		<path fill="#2A333C" d="M160.2,107.6c0,0.8,0,1.3,0,1.5c0,1.2-0.3,2.3-0.8,3.3c-0.6,1.3-1.4,2.1-2.4,2.2c-0.3,0.1-0.7,0.1-1.2,0.1
			c-0.9,0-1.6-0.2-2-0.7c-0.9-0.8-1.6-2.4-2.3-4.7c-0.7-2.3-1.2-3.6-1.5-3.9c-0.3,0-0.5,0.7-0.5,2.1c0,0.6,0.1,1.5,0.3,2.7
			c0.2,1.2,0.3,2.1,0.3,2.6c0,0.6-0.1,1-0.4,1.1c-0.9,0.6-2.4,0.9-4.4,0.9h-0.5c-1.1-0.1-1.7-1-1.7-2.8c0-1,0.1-2.9,0.2-5.7
			c0.2-4.9,0.3-8.7,0.3-11.2c0-2.7,0-4.7-0.1-6c0-0.3-0.2-0.9-0.5-1.7s-0.5-1.4-0.5-1.9c0-0.3,0.1-0.6,0.2-0.8
			c1.2-0.9,2.9-1.5,5-1.8c0.6-0.1,1-0.1,1.1-0.1c0.3,0,0.7,0.2,1,0.6c0.2,1.1,0.3,2.5,0.3,4.1c0,1-0.1,2.6-0.2,4.6
			c-0.1,2.1-0.2,3.6-0.2,4.6l0.2,0.2c0.3-0.5,0.8-1.3,1.4-2.4s1.1-1.8,1.4-2.3c1.3-1.7,2.7-2.6,4.5-2.6h0.2c1.8,0.5,2.7,2.1,2.7,4.8
			c0,1.2-0.2,2.4-0.6,3.5c-0.5,1.5-1.2,2.2-2.2,2.2c-0.3,0-0.5-0.2-0.8-0.7c-0.3-0.5-0.5-0.7-0.7-0.7c-0.2,0-0.3,0.2-0.6,0.6
			c0.4,1.5,0.9,2.6,1.3,3.3c0.7,1.2,1.7,1.8,2.8,1.8C160,105.1,160.2,106.1,160.2,107.6z"/>
	</g>
	<g>
		<path fill="#FFFFFF" d="M24.6,99.3v0.3c0,2.6-0.2,4.9-0.5,7c-0.4,2.8-1.2,5-2.4,6.5c-0.8,1.1-2.2,1.6-4.1,1.6
			c-1.8,0-3.4-1.1-4.7-3.4c0.1,0-0.2,0.4-0.9,1.1c-1.3,1.5-2.9,2.3-4.8,2.3c-0.8,0-1.7-0.3-2.5-0.8c-0.8-0.6-1.4-1.2-1.7-2
			c-0.7-1.6-1-3.7-1-6.3c0-0.8,0-1.9,0.1-3.5c0.1-1.5,0.1-2.7,0.1-3.5c0-1.3-0.1-2.4-0.2-3.2c-0.1-0.3-0.2-0.9-0.5-1.6
			c-0.3-0.7-0.4-1.2-0.4-1.6c0-0.1,0-0.3,0.1-0.5c0.7-1,2.4-1.6,5.1-1.8C6.5,90,6.7,90,6.9,90c0.7,0,1.1,0.2,1.2,0.5
			c0.1,0.2,0.1,0.6,0.1,1.4c0,0.9,0,2.3-0.1,4.2C8,97.9,8,99.3,8,100.2c0,1.3,0.1,2.3,0.4,3.1c0.2,0.5,0.5,0.8,1,0.8
			c0.6,0,1-0.3,1.1-1c0.2-1.3,0.3-2.7,0.3-4.2c0-0.8,0-2-0.1-3.6c-0.1-1.6-0.1-2.8-0.1-3.6c0-1,1.2-1.5,3.6-1.5c1,0,1.7,0.1,2,0.2
			c0.3,0.3,0.5,0.9,0.5,1.6c0,0.7-0.1,1.9-0.2,3.3c-0.1,1.5-0.2,2.6-0.2,3.3c0,2.1,0.3,3.7,0.8,4.9c0.2,0.5,0.6,0.7,1.1,0.7
			c0.5,0,0.9-0.3,1.2-1c0.2-0.5,0.3-1.1,0.3-1.6c0-0.6-0.1-1.1-0.2-1.7c-0.4-0.3-0.9-0.7-1.6-1.4c-0.3-0.8-0.5-1.9-0.5-3.1
			c0-1.5,0.2-2.8,0.7-3.7c0.8-1.6,1.8-2.4,3-2.4c1.7,0,2.7,1.7,3.1,5c0.1,0.8,0.2,1.8,0.3,3.1c0,0.3,0,0.5,0,0.6c0,0.1,0,0.3,0,0.6
			C24.6,99,24.6,99.2,24.6,99.3z"/>
		<path fill="#FFFFFF" d="M42,101.5c0,3.3-0.3,5.8-0.9,7.7c-0.9,2.8-2.6,4.5-5.1,5.3c-0.6,0.2-1.3,0.3-2.1,0.3c-2.1,0-3.8-0.6-5-1.8
			c-0.2-0.2-0.5-0.6-0.9-1.1c-1.5-2.3-2.3-5.2-2.3-8.8c0-2.6,0.4-5.2,1.2-7.8c0.5-1.7,1.4-3,2.6-4.1c1.3-1.2,2.8-1.8,4.4-1.8
			C39.3,89.3,42,93.4,42,101.5z M36.2,102.2c0-1-0.2-2-0.7-3c-0.5-1.2-1.3-1.8-2.2-1.8c-1.2,0-1.8,1.1-1.8,3.4c0,1.7,0.5,3,1.6,3.9
			c0.3,0.2,0.6,0.3,0.9,0.3c0.3,0,0.6-0.1,1.1-0.2C35.9,104.1,36.2,103.3,36.2,102.2z"/>
		<path fill="#FFFFFF" d="M59.1,101.5c0,3.3-0.3,5.8-0.9,7.7c-0.9,2.8-2.6,4.5-5.1,5.3c-0.6,0.2-1.3,0.3-2.1,0.3
			c-2.1,0-3.8-0.6-5-1.8c-0.2-0.2-0.5-0.6-0.9-1.1c-1.5-2.3-2.3-5.2-2.3-8.8c0-2.6,0.4-5.2,1.2-7.8c0.5-1.7,1.4-3,2.6-4.1
			c1.3-1.2,2.8-1.8,4.4-1.8C56.5,89.3,59.1,93.4,59.1,101.5z M53.3,102.2c0-1-0.2-2-0.7-3c-0.5-1.2-1.3-1.8-2.2-1.8
			c-1.2,0-1.8,1.1-1.8,3.4c0,1.7,0.5,3,1.6,3.9c0.3,0.2,0.6,0.3,0.9,0.3c0.3,0,0.6-0.1,1.1-0.2C53,104.1,53.3,103.3,53.3,102.2z"/>
		<path fill="#FFFFFF" d="M77,107.7c0,3.1-0.7,5.2-2.2,6.4c-0.4,0.3-0.9,0.5-1.4,0.5c-0.7,0-1.3,0-1.6-0.1c-0.3-0.1-0.7-0.3-1.1-0.7
			c-0.4-0.4-0.7-0.6-0.7-0.6c-0.2,0-0.6,0.3-1.2,0.8c-0.8,0.6-2,0.8-3.5,0.8c-1.4,0-2.7-0.8-3.6-2.4c-0.7-1.2-1.2-2.7-1.5-4.4
			c-0.2-1.1-0.2-2.8-0.2-5c0-4.8,1.1-8.5,3.3-11.3c0.9-1.1,2.1-1.6,3.8-1.6c0.6,0,1.4,0.1,2.3,0.3c0.4-0.3,0.6-0.7,0.6-1.1
			c0-0.6-0.2-1.3-0.5-2.1c0-0.1-0.2-0.4-0.6-0.9c-0.2-0.3-0.4-0.7-0.4-1c0-0.2,0.1-0.5,0.2-0.7c0.7-0.5,1.7-0.9,3-1.3
			c1.3-0.4,2.3-0.6,3.2-0.6c0.3,0,0.6,0,0.8,0.1c0.1,0.1,0.3,0.3,0.5,0.6c0.1,0.2,0.2,0.9,0.2,2.2c0,1.8-0.1,4.4-0.2,7.9
			c-0.2,3.5-0.2,6.1-0.2,7.9c0,1,0,1.6,0,1.7c0.1,0.4,0.4,0.9,1,1.4L77,107.7z M69.6,102.6c0-1-0.1-2-0.4-3c-0.4-1.3-0.9-2-1.7-2
			c-0.5,0-0.9,0.3-1.2,0.8c-0.2,0.5-0.4,0.9-0.4,1.5c0,0.9,0.1,1.7,0.2,2.6l0.2,0.6c0.4,1.3,1.1,2,1.9,2
			C69.1,104.7,69.6,103.8,69.6,102.6z"/>
		<path fill="#FFFFFF" d="M94.8,106.7c0,1.5-0.5,2.9-1.6,4.4c-1,1.4-2.3,2.4-3.7,3c-1.1,0.5-2.4,0.7-4,0.7c-2.1,0-3.7-0.4-4.9-1.1
			c-1.9-1.2-2.9-2.9-2.9-5c0-1.1,0.3-2,0.8-2.9c0.5-0.9,1.3-1.5,2.2-1.9c0.9-0.4,1.7-0.6,2.4-0.6c0.6,0,1.1,0.1,1.6,0.3
			c0.7,0.3,1,0.6,1,1.1c0,0.1-0.1,0.4-0.3,0.8c-0.2,0.5-0.3,0.8-0.3,0.9c0,0.5,0.3,0.8,1,0.8c0.3,0,0.6-0.1,0.9-0.3
			c0.3-0.2,0.4-0.4,0.4-0.7c0-0.9-0.5-1.8-1.4-2.5c-0.6-0.5-1.5-1-2.8-1.6c-1.3-0.6-2.2-1.2-2.8-1.7c-1.3-1.1-1.9-2.5-1.9-4.3
			c0-3.1,2-5.2,6.1-6.2c1.2-0.3,2.1-0.4,2.7-0.4c1.9,0,3.5,0.4,4.8,1.1c1.6,0.9,2.4,2.2,2.4,3.9c0,1.1-0.5,1.9-1.5,2.5
			c-0.9,0.5-1.9,0.8-3,0.8c-0.5,0-0.9-0.1-1.4-0.3c-0.6-0.2-1-0.5-1-0.9c0-0.1,0.1-0.3,0.2-0.6c0.1-0.3,0.2-0.5,0.2-0.6
			c0-0.3-0.3-0.6-0.8-0.8c-0.7,0-1.1,0.4-1.1,1c0,0.7,0.6,1.6,1.9,2.5c0,0,0.6,0.4,1.6,1c2.6,1.7,4.2,3.3,4.7,5
			c0.1,0.2,0.1,0.7,0.2,1.3C94.8,106,94.8,106.5,94.8,106.7z"/>
		<path fill="#FFFFFF" d="M109.5,92.1c0,1.9-0.2,3.4-0.6,4.5c-0.2,0.7-0.7,1-1.5,1c-0.1,0-0.4,0-0.8-0.1c-0.5-0.1-0.7-0.1-0.9-0.1
			c-0.7,0-1.1,0.2-1.3,0.7c-0.1,0.2-0.1,0.7-0.1,1.5c0,2,0.5,3,1.4,3c0.3,0,0.7-0.2,1.4-0.6c0.6-0.4,1-0.6,1.2-0.6
			c0.3,0,0.6,0.4,0.7,1.2c0.3,1.5,0.4,3.1,0.4,4.7c0,2.6-0.5,4.5-1.5,5.6c-0.3,0.3-0.6,0.6-1,0.9c-0.8,0.6-1.8,0.9-3,0.9
			c-0.8,0-1.5-0.1-2.2-0.2c-1.5-0.3-2.6-1.6-3.2-4c-0.1-0.2-0.2-0.7-0.4-1.5c-0.1-0.4-0.1-1.1-0.1-2.3c0-1.1,0.1-2.9,0.3-5.2
			c0.2-2.3,0.3-3.3,0.3-3c0-0.6-0.3-0.9-0.9-1c-0.3,0.1-0.4,0.1-0.5,0.1c-0.3,0-0.7-0.1-1-0.3c-0.3-0.8-0.4-1.7-0.4-2.8
			c0-0.9,0.2-2.4,0.6-4.4c1.1-1.6,2.3-3,3.5-4.4c1.9-2,3.3-3,4.3-3c0.9,0,1.3,0.6,1.3,1.9c0,0.2,0,0.7-0.1,1.4
			c-0.1,0.7-0.1,1.2-0.1,1.4c0,0.6,0.1,1,0.2,1.4c0.3,0.3,0.7,0.4,1.2,0.4c0.1,0,0.4,0,0.9-0.1c0.4-0.1,0.7-0.1,0.8-0.1
			c0.6,0,1,0.2,1.2,0.6C109.5,90.2,109.5,90.9,109.5,92.1z"/>
		<path fill="#FFFFFF" d="M126.5,101.5c0,3.3-0.3,5.8-0.9,7.7c-0.9,2.8-2.6,4.5-5.1,5.3c-0.6,0.2-1.3,0.3-2.1,0.3
			c-2.1,0-3.8-0.6-5-1.8c-0.2-0.2-0.5-0.6-0.9-1.1c-1.5-2.3-2.3-5.2-2.3-8.8c0-2.6,0.4-5.2,1.2-7.8c0.5-1.7,1.4-3,2.6-4.1
			c1.3-1.2,2.8-1.8,4.4-1.8C123.8,89.3,126.5,93.4,126.5,101.5z M120.7,102.2c0-1-0.2-2-0.7-3c-0.5-1.2-1.3-1.8-2.2-1.8
			c-1.2,0-1.8,1.1-1.8,3.4c0,1.7,0.5,3,1.6,3.9c0.3,0.2,0.6,0.3,0.9,0.3c0.3,0,0.6-0.1,1.1-0.2C120.3,104.1,120.7,103.3,120.7,102.2
			z"/>
		<path fill="#FFFFFF" d="M141.8,105.5c0,3.2-0.9,5.7-2.6,7.5c-1.1,1.2-2.7,1.7-4.6,1.7c-4.8,0-7.2-3.6-7.2-10.8
			c0-7.7,2.1-12.5,6.3-14.3c0.6-0.2,1.4-0.4,2.5-0.4c1.6,0,2.8,0.4,3.6,1.2c1.3,1.3,1.9,2.9,1.9,4.9c0,3.3-1.5,4.9-4.5,4.9
			c-0.4,0-0.7-0.1-1.1-0.2c-0.5-0.2-0.8-0.4-0.8-0.7c0-0.1,0-0.1,0-0.2c0.3-0.3,0.4-0.6,0.4-1.1c0-0.5-0.3-0.8-0.9-1
			c-0.8,0.1-1.2,0.9-1.2,2.3c0,3.4,0.9,5,2.6,5c1.4,0,2.8-0.7,4.1-2.1c0.2-0.1,0.3-0.1,0.3-0.1c0.2,0,0.5,0.3,1,1
			C141.7,104.1,141.8,104.8,141.8,105.5z"/>
		<path fill="#FFFFFF" d="M160.2,107.6c0,0.8,0,1.3,0,1.5c0,1.2-0.3,2.3-0.8,3.3c-0.6,1.3-1.4,2.1-2.4,2.2c-0.3,0.1-0.7,0.1-1.2,0.1
			c-0.9,0-1.6-0.2-2-0.7c-0.9-0.8-1.6-2.4-2.3-4.7c-0.7-2.3-1.2-3.6-1.5-3.9c-0.3,0-0.5,0.7-0.5,2.1c0,0.6,0.1,1.5,0.3,2.7
			c0.2,1.2,0.3,2.1,0.3,2.6c0,0.6-0.1,1-0.4,1.1c-0.9,0.6-2.4,0.9-4.4,0.9h-0.5c-1.1-0.1-1.7-1-1.7-2.8c0-1,0.1-2.9,0.2-5.7
			c0.2-4.9,0.3-8.7,0.3-11.2c0-2.7,0-4.7-0.1-6c0-0.3-0.2-0.9-0.5-1.7s-0.5-1.4-0.5-1.9c0-0.3,0.1-0.6,0.2-0.8
			c1.2-0.9,2.9-1.5,5-1.8c0.6-0.1,1-0.1,1.1-0.1c0.3,0,0.7,0.2,1,0.6c0.2,1.1,0.3,2.5,0.3,4.1c0,1-0.1,2.6-0.2,4.6
			c-0.1,2.1-0.2,3.6-0.2,4.6l0.2,0.2c0.3-0.5,0.8-1.3,1.4-2.4s1.1-1.8,1.4-2.3c1.3-1.7,2.7-2.6,4.5-2.6h0.2c1.8,0.5,2.7,2.1,2.7,4.8
			c0,1.2-0.2,2.4-0.6,3.5c-0.5,1.5-1.2,2.2-2.2,2.2c-0.3,0-0.5-0.2-0.8-0.7c-0.3-0.5-0.5-0.7-0.7-0.7c-0.2,0-0.3,0.2-0.6,0.6
			c0.4,1.5,0.9,2.6,1.3,3.3c0.7,1.2,1.7,1.8,2.8,1.8C160,105.1,160.2,106.1,160.2,107.6z"/>
	</g>
	<path fill="#E5615B" d="M13.2,125.4c0,1.9-0.5,2.8-1.6,2.8c-0.5,0-0.8-0.1-1-0.4c-0.2-0.2-0.3-0.6-0.3-1.1c0-0.3-0.1-0.4-0.1-0.4
		c0-0.3,0-0.7,0.1-1.2c0-0.5,0.1-0.9,0.1-1.2c0-0.7,0-1,0-1c-0.1-0.4-0.2-0.6-0.6-0.6c-0.2,0-0.4,0.2-0.5,0.5
		c-0.1,0.3-0.1,0.7-0.1,1.3c0,0.3,0,0.7,0,1.2s0,1,0,1.2c0,0.6,0,0.9-0.1,1.2c-0.1,0.3-0.5,0.4-1.2,0.4c-0.2,0-0.5,0-0.7-0.1
		c-0.4-0.1-0.5-0.2-0.5-0.3c0,0,0-0.1,0-0.1v-0.1l0-4.8c-0.1-0.3-0.3-0.5-0.4-0.5c-0.3,0-0.5,0.3-0.6,0.8c0,0.1,0,0.5,0,1.2
		c0,0.3,0,0.7,0,1.3c0,0.6,0,1,0,1.3c0,0.4,0,0.7,0,1c-0.2,0.2-0.6,0.4-1.3,0.4c-0.3,0-0.6,0-0.9,0c-0.2-0.2-0.3-0.4-0.3-0.7
		c0-0.1,0-0.3,0-0.5c0-0.2,0-0.4,0-0.4c0-0.3,0-0.9,0.1-1.8c0-0.6,0-1.2,0-1.8c0-0.9-0.1-1.6-0.2-2.2c0-0.2-0.1-0.6-0.2-1
		c0-0.2,0.1-0.4,0.3-0.5c0.4-0.2,1-0.3,1.6-0.3c0.1,0,0.3,0,0.5,0c0,0,0.1,0.1,0.1,0.3c0.1,0.2,0.1,0.3,0.2,0.3c0,0,0.1,0,0.2-0.1
		c0.5-0.5,1-0.7,1.7-0.7c0.7,0,1.2,0.3,1.5,0.8c0.2,0,0.5-0.2,0.9-0.4c0.4-0.2,0.8-0.3,1.2-0.3c1.2,0,1.7,0.8,1.7,2.3
		c0,0.3,0,0.7-0.1,1.2c-0.1,0.5-0.1,0.9-0.1,1.2c0,0.4,0.1,0.6,0.2,0.7c0.2,0.1,0.3,0.2,0.4,0.6C13.2,124.7,13.2,125,13.2,125.4z"/>
	<path fill="#E5615B" d="M19.9,125.5c0,1.4-0.4,2.3-1.1,2.6c-0.2,0.1-0.3,0.1-0.5,0.1h0c-0.1,0-0.3-0.1-0.5-0.3
		c-0.2-0.2-0.4-0.3-0.5-0.3c-0.1,0-0.3,0.1-0.5,0.3c-0.3,0.2-0.7,0.3-1.2,0.3c-0.3,0-0.5,0-0.6,0c-0.5-0.1-0.8-0.4-1.1-0.9
		c-0.2-0.5-0.3-0.9-0.3-1.5c0-1.3,0.5-2.2,1.5-3c0.1-0.1,0.4-0.2,0.9-0.4c0.4-0.2,0.7-0.3,0.8-0.5c0.2-0.2,0.3-0.6,0.3-1
		c0-0.1,0-0.1-0.1-0.2c0-0.1-0.1-0.1-0.1-0.2c-0.1,0-0.2,0-0.3,0c-0.2,0-0.3,0.1-0.3,0.3c0,0.1,0,0.2,0.1,0.3
		c0.1,0.1,0.1,0.2,0.1,0.3c0,0-0.1,0.1-0.2,0.3c-0.3,0.4-0.8,0.6-1.4,0.6c-0.7,0-1.1-0.2-1.3-0.6c-0.1-0.2-0.1-0.4-0.1-0.7
		c0-0.4,0.1-0.7,0.2-0.9c0.6-0.9,1.8-1.3,3.6-1.3c1.3,0,1.9,0.6,1.9,1.9c0,0.3,0,0.7-0.1,1.2c-0.1,0.5-0.1,1-0.1,1.2
		c0,0.3,0,0.6,0.1,0.8l0.5,0.6L19.9,125.5z M17.1,124.2c0-0.1,0-0.3-0.1-0.4c-0.1-0.1-0.2-0.2-0.3-0.2c0,0-0.1,0-0.1,0
		c-0.1,0-0.1,0-0.1,0c-0.3,0.1-0.4,0.4-0.4,0.8c0,0.2,0.1,0.4,0.3,0.6c0.1,0,0.2,0,0.2,0c0.2,0,0.3,0,0.3-0.1
		C17,124.7,17.1,124.4,17.1,124.2z"/>
	<path fill="#E5615B" d="M27.2,124.7c0,0.1,0,0.2,0,0.4s0,0.3,0,0.4c0,0.6-0.1,1.1-0.3,1.6c-0.2,0.6-0.6,1-1.1,1.1
		c-0.1,0-0.2,0-0.3,0c-0.6,0-0.9-0.2-1.2-0.6c-0.1-0.3-0.2-0.7-0.2-1.4c0-0.1,0-0.3,0-0.6c0-0.3,0-0.5,0-0.6v-0.5c0-0.1,0-0.2,0-0.3
		c0-0.1,0-0.2,0-0.2c0-0.1,0-0.2,0-0.3c0-0.2,0-0.3,0-0.3c0-0.4-0.1-0.7-0.4-0.9c0,0-0.1,0-0.1,0c-0.3,0-0.5,0.1-0.5,0.4
		c-0.1,0.5-0.2,1-0.2,1.5c0,0,0,0.6,0.1,1.6c0,0.2,0,0.5,0,0.6v0.3c0,0.1,0,0.2,0,0.3c0,0,0,0,0,0.1v0.1c0,0.3-0.2,0.5-0.7,0.7
		c-0.4,0.1-0.7,0.2-1.1,0.2c-0.2,0-0.4-0.1-0.6-0.2c-0.1-0.3-0.2-0.7-0.2-1.3c0-0.5,0-1.2,0.1-2.2c0.1-1,0.1-1.7,0.1-2.2
		c0-0.8-0.1-1.4-0.2-1.9l-0.2-0.6c0-0.3,0.2-0.6,0.8-0.7c0.4-0.1,0.7-0.2,1.2-0.2c0.3,0,0.4,0,0.5,0.1c0.1,0,0.1,0.2,0.2,0.3
		c0.1,0.2,0.1,0.3,0.3,0.3c0.2-0.2,0.6-0.4,1-0.6c0.4-0.2,0.8-0.2,1.2-0.2c0.7,0,1.2,0.3,1.4,0.9c0.1,0.3,0.2,0.6,0.2,1.1
		c0,0.3,0,0.6-0.1,1.1c0,0.5-0.1,0.9-0.1,1.1c0,0.3,0,0.6,0.1,0.9C27,124.1,27.2,124.3,27.2,124.7z"/>
	<path fill="#E5615B" d="M33.5,123.3c0,1.2-0.1,2.2-0.3,2.9c-0.4,1-1,1.7-1.9,2c-0.2,0.1-0.5,0.1-0.8,0.1c-0.8,0-1.4-0.2-1.9-0.7
		c-0.1-0.1-0.2-0.2-0.3-0.4c-0.6-0.8-0.9-1.9-0.9-3.3c0-1,0.2-2,0.5-2.9c0.2-0.6,0.5-1.1,1-1.5c0.5-0.5,1.1-0.7,1.7-0.7
		C32.5,118.7,33.5,120.2,33.5,123.3z M31.3,123.5c0-0.4-0.1-0.7-0.3-1.1c-0.2-0.5-0.5-0.7-0.8-0.7c-0.4,0-0.7,0.4-0.7,1.3
		c0,0.6,0.2,1.1,0.6,1.5c0.1,0.1,0.2,0.1,0.3,0.1c0.1,0,0.2,0,0.4-0.1C31.2,124.2,31.3,123.9,31.3,123.5z"/>
	<path fill="#E5615B" d="M44.3,125.4c0,1.9-0.5,2.8-1.6,2.8c-0.5,0-0.8-0.1-1-0.4c-0.2-0.2-0.3-0.6-0.3-1.1c0-0.3-0.1-0.4-0.1-0.4
		c0-0.3,0-0.7,0.1-1.2c0-0.5,0.1-0.9,0.1-1.2c0-0.7,0-1,0-1c-0.1-0.4-0.2-0.6-0.6-0.6c-0.2,0-0.4,0.2-0.5,0.5
		c-0.1,0.3-0.1,0.7-0.1,1.3c0,0.3,0,0.7,0,1.2s0,1,0,1.2c0,0.6,0,0.9-0.1,1.2c-0.1,0.3-0.5,0.4-1.2,0.4c-0.2,0-0.5,0-0.7-0.1
		c-0.4-0.1-0.5-0.2-0.5-0.3c0,0,0-0.1,0-0.1v-0.1l0-4.8c-0.1-0.3-0.3-0.5-0.4-0.5c-0.3,0-0.5,0.3-0.6,0.8c0,0.1,0,0.5,0,1.2
		c0,0.3,0,0.7,0,1.3c0,0.6,0,1,0,1.3c0,0.4,0,0.7,0,1c-0.2,0.2-0.6,0.4-1.3,0.4c-0.3,0-0.6,0-0.9,0c-0.2-0.2-0.3-0.4-0.3-0.7
		c0-0.1,0-0.3,0-0.5c0-0.2,0-0.4,0-0.4c0-0.3,0-0.9,0.1-1.8c0-0.6,0-1.2,0-1.8c0-0.9-0.1-1.6-0.2-2.2c0-0.2-0.1-0.6-0.2-1
		c0-0.2,0.1-0.4,0.3-0.5c0.4-0.2,1-0.3,1.6-0.3c0.1,0,0.3,0,0.5,0c0,0,0.1,0.1,0.1,0.3c0.1,0.2,0.1,0.3,0.2,0.3c0,0,0.1,0,0.2-0.1
		c0.5-0.5,1-0.7,1.7-0.7c0.7,0,1.2,0.3,1.5,0.8c0.2,0,0.5-0.2,0.9-0.4c0.4-0.2,0.8-0.3,1.2-0.3c1.2,0,1.7,0.8,1.7,2.3
		c0,0.3,0,0.7-0.1,1.2c-0.1,0.5-0.1,0.9-0.1,1.2c0,0.4,0.1,0.6,0.2,0.7c0.2,0.1,0.3,0.2,0.4,0.6C44.3,124.7,44.3,125,44.3,125.4z"/>
	<path fill="#E5615B" d="M51,125.5c0,1.4-0.4,2.3-1.1,2.6c-0.2,0.1-0.3,0.1-0.5,0.1h0c-0.1,0-0.3-0.1-0.5-0.3
		c-0.2-0.2-0.4-0.3-0.5-0.3c-0.1,0-0.3,0.1-0.5,0.3c-0.3,0.2-0.7,0.3-1.2,0.3c-0.3,0-0.5,0-0.6,0c-0.5-0.1-0.8-0.4-1.1-0.9
		c-0.2-0.5-0.3-0.9-0.3-1.5c0-1.3,0.5-2.2,1.5-3c0.1-0.1,0.4-0.2,0.9-0.4c0.4-0.2,0.7-0.3,0.8-0.5c0.2-0.2,0.3-0.6,0.3-1
		c0-0.1,0-0.1-0.1-0.2c0-0.1-0.1-0.1-0.1-0.2c-0.1,0-0.2,0-0.3,0c-0.2,0-0.3,0.1-0.3,0.3c0,0.1,0,0.2,0.1,0.3
		c0.1,0.1,0.1,0.2,0.1,0.3c0,0-0.1,0.1-0.2,0.3c-0.3,0.4-0.8,0.6-1.4,0.6c-0.7,0-1.1-0.2-1.3-0.6c-0.1-0.2-0.1-0.4-0.1-0.7
		c0-0.4,0.1-0.7,0.2-0.9c0.6-0.9,1.8-1.3,3.6-1.3c1.3,0,1.9,0.6,1.9,1.9c0,0.3,0,0.7-0.1,1.2c-0.1,0.5-0.1,1-0.1,1.2
		c0,0.3,0,0.6,0.1,0.8l0.5,0.6L51,125.5z M48.2,124.2c0-0.1,0-0.3-0.1-0.4c-0.1-0.1-0.2-0.2-0.3-0.2c0,0-0.1,0-0.1,0
		c-0.1,0-0.1,0-0.1,0c-0.3,0.1-0.4,0.4-0.4,0.8c0,0.2,0.1,0.4,0.3,0.6c0.1,0,0.2,0,0.2,0c0.2,0,0.3,0,0.3-0.1
		C48.1,124.7,48.2,124.4,48.2,124.2z"/>
	<path fill="#E5615B" d="M58.3,124.7c0,0.1,0,0.2,0,0.4s0,0.3,0,0.4c0,0.6-0.1,1.1-0.3,1.6c-0.2,0.6-0.6,1-1.1,1.1
		c-0.1,0-0.2,0-0.3,0c-0.6,0-0.9-0.2-1.2-0.6c-0.1-0.3-0.2-0.7-0.2-1.4c0-0.1,0-0.3,0-0.6c0-0.3,0-0.5,0-0.6v-0.5c0-0.1,0-0.2,0-0.3
		c0-0.1,0-0.2,0-0.2c0-0.1,0-0.2,0-0.3c0-0.2,0-0.3,0-0.3c0-0.4-0.1-0.7-0.4-0.9c0,0-0.1,0-0.1,0c-0.3,0-0.5,0.1-0.5,0.4
		c-0.1,0.5-0.2,1-0.2,1.5c0,0,0,0.6,0.1,1.6c0,0.2,0,0.5,0,0.6v0.3c0,0.1,0,0.2,0,0.3c0,0,0,0,0,0.1v0.1c0,0.3-0.2,0.5-0.7,0.7
		c-0.4,0.1-0.7,0.2-1.1,0.2c-0.2,0-0.4-0.1-0.6-0.2c-0.1-0.3-0.2-0.7-0.2-1.3c0-0.5,0-1.2,0.1-2.2c0.1-1,0.1-1.7,0.1-2.2
		c0-0.8-0.1-1.4-0.2-1.9l-0.2-0.6c0-0.3,0.2-0.6,0.8-0.7c0.4-0.1,0.7-0.2,1.2-0.2c0.3,0,0.4,0,0.5,0.1c0.1,0,0.1,0.2,0.2,0.3
		c0.1,0.2,0.1,0.3,0.3,0.3c0.2-0.2,0.6-0.4,1-0.6c0.4-0.2,0.8-0.2,1.2-0.2c0.7,0,1.2,0.3,1.4,0.9c0.1,0.3,0.2,0.6,0.2,1.1
		c0,0.3,0,0.6-0.1,1.1c0,0.5-0.1,0.9-0.1,1.1c0,0.3,0,0.6,0.1,0.9C58.1,124.1,58.3,124.3,58.3,124.7z"/>
	<path fill="#E5615B" d="M64.6,123.3c0,1.2-0.1,2.2-0.3,2.9c-0.4,1-1,1.7-1.9,2c-0.2,0.1-0.5,0.1-0.8,0.1c-0.8,0-1.4-0.2-1.9-0.7
		c-0.1-0.1-0.2-0.2-0.3-0.4c-0.6-0.8-0.9-1.9-0.9-3.3c0-1,0.2-2,0.5-2.9c0.2-0.6,0.5-1.1,1-1.5c0.5-0.5,1.1-0.7,1.7-0.7
		C63.6,118.7,64.6,120.2,64.6,123.3z M62.4,123.5c0-0.4-0.1-0.7-0.3-1.1c-0.2-0.5-0.5-0.7-0.8-0.7c-0.4,0-0.7,0.4-0.7,1.3
		c0,0.6,0.2,1.1,0.6,1.5c0.1,0.1,0.2,0.1,0.3,0.1c0.1,0,0.2,0,0.4-0.1C62.3,124.2,62.4,123.9,62.4,123.5z"/>
</g>
</svg>
